<?xml version="1.0" encoding="UTF-8" standalone="no"?>
<!-- Created with Inkscape (http://www.inkscape.org/) -->

<svg
   width="56.305889mm"
   height="65.852104mm"
   viewBox="0 0 56.305889 65.852104"
   version="1.1"
   id="svg1"
   xml:space="preserve"
   xmlns:inkscape="http://www.inkscape.org/namespaces/inkscape"
   xmlns:sodipodi="http://sodipodi.sourceforge.net/DTD/sodipodi-0.dtd"
   xmlns="http://www.w3.org/2000/svg"
   xmlns:svg="http://www.w3.org/2000/svg"><sodipodi:namedview
     id="namedview1"
     pagecolor="#ffffff"
     bordercolor="#000000"
     borderopacity="0.25"
     inkscape:showpageshadow="2"
     inkscape:pageopacity="0.0"
     inkscape:pagecheckerboard="0"
     inkscape:deskcolor="#d1d1d1"
     inkscape:document-units="mm"><inkscape:page
       x="0"
       y="0"
       width="56.305889"
       height="65.852104"
       id="page2"
       margin="0"
       bleed="0" /></sodipodi:namedview><defs
     id="defs1"><linearGradient
       id="swatch29"
       inkscape:swatch="solid"><stop
         style="stop-color:#e5ff80;stop-opacity:1;"
         offset="0"
         id="stop29" /></linearGradient></defs><g
     inkscape:label="Capa 1"
     inkscape:groupmode="layer"
     id="layer1"
     transform="translate(-69.838868,-198.74781)"><g
       id="g29"
       transform="rotate(-154.37371,152.63979,199.79375)"><rect
         style="fill:#0000ff;stroke:none;stroke-width:0.264583;stroke-opacity:1"
         id="rect40"
         width="57.707405"
         height="7.6119127"
         x="-104.70432"
         y="-262.80994"
         transform="rotate(154.37371)" /><circle
         style="fill:#000080;stroke-width:0.285871"
         id="path27-1-1-0-5"
         cx="182.90701"
         cy="293.01028"
         r="4.3243494" /><path
         id="path29-0"
         style="fill:#000080;stroke-width:0.264583"
         d="m 183.25065,243.82217 c -0.20112,-0.003 -0.31744,0.28337 -0.32918,0.91209 -0.93893,29.50817 -9.34462,9.83134 -12.14499,32.25333 -0.65981,5.28294 3.71802,10.05993 8.20105,11.48767 1.32566,0.42219 2.27583,-1.36886 3.94291,-1.36891 1.6128,0 2.58486,1.65636 3.87263,1.23507 4.45069,-1.45604 8.2734,-6.16823 8.2734,-11.35383 0,-6.07866 -9.87169,-33.1369 -11.81582,-33.16542 z"
         sodipodi:nodetypes="scsacass" /><path
         style="fill:#000000;stroke-width:0.492434"
         d="m 194.47479,157.19381 c 0.94805,1.73624 2.37989,3.43914 5.31771,6.3244 1.34941,1.32526 2.92459,3.41882 3.55512,4.72509 0.73023,1.5128 0.61752,2.74463 -0.32532,3.55552 -0.97282,0.83667 -3.04756,0.57764 -4.5163,-0.56387 -1.73569,-1.34897 -3.16143,-4.37017 -3.9553,-8.38142 -0.40594,-2.05109 -0.74327,-5.03232 -0.71002,-6.27488 0.0139,-0.52062 0.0139,-0.52062 0.63411,0.61516 z"
         id="path38" /><circle
         style="fill:#000000;stroke:none;stroke-width:0.235891;stroke-opacity:1"
         id="path40-4-3-1"
         cx="-109.77694"
         cy="-244.98865"
         transform="rotate(154.37371)"
         r="2.2148139" /><path
         style="fill:#000000;stroke-width:0.492434"
         d="m 188.79138,144.2318 c 0.84211,0.77982 2.98683,2.05958 4.89404,2.9203 2.83547,1.27963 8.31032,3.06914 11.63473,3.80291 1.83398,0.4048 2.98948,0.89235 4.04818,1.70809 1.17036,0.90176 1.51513,1.89383 0.96296,2.7709 -0.37237,0.59148 -1.84761,1.22426 -2.97338,1.27538 -2.65157,0.12042 -6.31244,-0.93511 -9.27819,-2.67516 -1.16864,-0.68566 -3.60955,-2.5936 -4.77539,-3.73269 -1.59569,-1.55909 -4.92873,-5.78297 -5.09713,-6.45948 -0.0269,-0.10809 0.23598,0.0673 0.58418,0.38975 z"
         id="path37" /><path
         style="fill:#000000;stroke-width:0.492434"
         d="m 186.12887,145.4345 c 0.63755,1.57362 1.21728,3.49211 1.61594,5.34761 1.30288,6.06416 0.68457,11.48865 -1.78688,15.67644 -1.76763,2.99518 -4.29111,3.79653 -5.04162,1.60098 -0.48485,-1.41841 -0.20207,-3.12977 1.00026,-6.05354 2.51471,-6.11516 4.14186,-13.11171 3.85833,-16.59037 -0.0872,-1.07002 -0.0872,-1.07002 0.35397,0.0189 z"
         id="path36" /><path
         style="fill:#000000;stroke-width:0.492434"
         d="m 177.58251,128.3909 c 0.13267,0.2327 0.53342,2.1392 0.68472,3.25748 0.47988,3.54669 0.0308,6.98715 -1.29606,9.92924 -1.36874,3.03495 -3.36592,5.43512 -6.18578,7.43393 -1.59888,1.13333 -3.49755,1.64686 -4.46846,1.20858 -1.55169,-0.70045 -0.43738,-2.85659 2.32112,-4.49127 3.94541,-2.33805 6.80869,-5.62592 8.14436,-9.35211 0.81409,-2.27111 1.07962,-4.4672 0.84936,-7.02463 -0.0514,-0.5714 -0.0736,-1.00394 -0.0493,-0.96122 z"
         id="path35" /><path
         style="fill:#000000;stroke-width:0.492434"
         d="m 178.39062,127.97678 c 0.0518,0.0945 0.42726,1.1333 0.83434,2.30851 2.46683,7.12158 3.10355,14.15718 1.85543,20.50203 -0.40525,2.0601 -1.58002,5.37299 -2.58612,7.29292 -1.02558,1.95714 -2.59404,4.1796 -3.67954,5.21379 -0.63797,0.60783 -1.08623,0.92074 -1.88755,1.3176 -1.22373,0.60607 -1.84888,0.66314 -2.6705,0.24379 -0.99667,-0.5087 -1.33144,-1.80502 -0.89924,-3.48198 0.21891,-0.84938 1.1923,-2.3218 2.46466,-3.72825 4.95162,-5.47344 7.92574,-12.99747 7.9618,-20.142 0.014,-2.76988 -0.31922,-5.28734 -1.07997,-8.1596 -0.22413,-0.84621 -0.36512,-1.46128 -0.31331,-1.36681 z"
         id="path34" /><path
         style="fill:#000000;stroke-width:0.492434"
         d="m 180.96409,127.16971 c 0.29827,0.32776 1.0502,0.99622 1.67098,1.48545 4.33911,3.41968 10.22354,4.22343 16.09828,2.19888 3.34852,-1.15397 5.19369,-1.1794 5.72161,-0.0789 0.22113,0.46101 0.0131,1.21682 -0.48705,1.77008 -0.52838,0.5844 -2.38272,1.59383 -3.43627,1.87055 -5.22774,1.37313 -10.25723,0.60975 -14.53295,-2.20584 -1.2706,-0.8367 -2.18891,-1.60372 -3.40552,-2.84448 -0.87086,-0.88813 -2.23984,-2.597 -2.19122,-2.73525 0.0109,-0.0311 0.26389,0.21169 0.56214,0.53946 z"
         id="path33" /><path
         style="fill:#000000;stroke-width:0.492434"
         d="m 180.19189,127.79894 c 0.87169,1.37689 2.66507,3.59916 3.93031,4.87025 1.21979,1.22542 3.81257,3.25499 5.32249,4.16633 2.459,1.48415 5.08384,2.61547 7.71347,3.32452 3.25159,0.87677 5.5705,1.1863 8.82856,1.17846 1.188,-0.003 2.59597,0.0701 3.12883,0.16221 2.75815,0.47661 4.30807,2.3717 3.31884,4.05795 -0.76653,1.30665 -3.4095,2.0077 -6.51213,1.72736 -8.4057,-0.75953 -15.96436,-5.40136 -22.18568,-13.6244 -1.38746,-1.83387 -4.54604,-6.93577 -4.35165,-7.02901 0.029,-0.0139 0.39207,0.51097 0.80696,1.16633 z"
         id="path32" /><path
         style="fill:#000000;stroke-width:0.229415"
         d="m 179.85634,124.46164 c 3.04447,-1.22807 5.12741,-1.71384 5.48791,-1.27986 0.13442,0.16183 0.11678,0.2986 -0.0746,0.57884 -0.13243,0.19385 -0.27724,0.33917 -0.75623,0.75886 -0.0541,0.0474 -0.0527,-0.0121 0.004,-0.17374 0.0724,-0.20594 0.0682,-0.2592 -0.0259,-0.32817 -0.35286,-0.25843 -1.94088,0.0972 -3.95243,0.88509 -1.03285,0.40456 -3.96246,1.80809 -4.99538,2.3932 -1.84865,1.04721 -3.18427,2.10997 -3.20367,2.5492 -0.005,0.11283 0.0305,0.15065 0.19583,0.20879 0.11105,0.039 0.23176,0.0567 0.26825,0.0392 0.0365,-0.0175 0.0593,-0.012 0.0508,0.0123 -0.0251,0.0713 -0.57791,0.16877 -1.026,0.18092 -0.69849,0.0189 -0.86727,-0.27454 -0.45999,-0.79985 0.41051,-0.52948 1.60068,-1.43173 3.10405,-2.35314 0.52032,-0.3189 4.73023,-2.40821 5.38329,-2.67163 z"
         id="path39" /><path
         style="fill:#000000;stroke-width:0.492434"
         d="m 180.8884,120.50688 c 6.53489,-2.63601 11.00587,-3.67871 11.77967,-2.74718 0.28854,0.34736 0.25068,0.64093 -0.16023,1.24246 -0.28426,0.41611 -0.59509,0.72802 -1.62322,1.62888 -0.11614,0.10176 -0.11308,-0.026 0.009,-0.37293 0.15544,-0.44205 0.1464,-0.55637 -0.0557,-0.70441 -0.75741,-0.55472 -4.16605,0.2086 -8.48379,1.89983 -2.21699,0.86838 -8.50534,3.88103 -10.72246,5.13695 -3.9681,2.2478 -6.83496,4.52899 -6.8766,5.47179 -0.0107,0.24219 0.0654,0.32337 0.42034,0.44817 0.23837,0.0838 0.49747,0.12166 0.57579,0.0841 0.0783,-0.0376 0.1274,-0.0257 0.10907,0.0264 -0.0538,0.153 -1.24047,0.36225 -2.20228,0.38833 -1.49928,0.0406 -1.86156,-0.58929 -0.98736,-1.71685 0.88116,-1.13651 3.43583,-3.07318 6.66278,-5.05096 1.11686,-0.68452 10.15332,-5.16916 11.5551,-5.7346 z"
         id="path31" /><path
         style="fill:#000000;stroke-width:0.492434"
         d="m 178.05363,115.87997 c 8.69035,-3.8203 16.20692,-6.13991 19.65298,-6.06491 0.81487,0.0177 1.79638,0.39429 1.96974,0.7557 0.32964,0.68721 -0.89355,2.45613 -2.81552,4.07167 -0.97411,0.8188 -1.09913,0.87337 -0.65718,0.28685 1.53411,-2.0359 -0.10582,-2.59508 -4.54798,-1.55078 -4.80631,1.1299 -10.79809,3.5092 -18.73814,7.44078 -5.60107,2.77341 -7.17151,3.6395 -10.5349,5.8099 -6.58491,4.24927 -8.62012,6.96331 -5.29771,7.06473 0.74322,0.0227 0.64486,0.0724 -0.65828,0.3329 -2.85175,0.57001 -4.77483,0.34291 -4.9645,-0.58628 -0.30763,-1.50709 2.90292,-4.44804 9.39361,-8.60482 2.59276,-1.66045 11.28598,-6.36464 13.76696,-7.44976 0.5584,-0.24423 2.10231,-0.92192 3.43092,-1.50598 z"
         id="path30" /><circle
         style="fill:#000000;stroke:none;stroke-width:0.13715;stroke-opacity:1"
         id="path40"
         cx="-129.18193"
         cy="-206.68799"
         r="1.2877219"
         transform="rotate(154.37371)" /><circle
         style="fill:#000000;stroke:none;stroke-width:0.13715;stroke-opacity:1"
         id="path40-9"
         cx="-83.261642"
         cy="-206.68799"
         r="1.2877219"
         transform="rotate(154.37371)" /><circle
         style="fill:#000000;stroke:none;stroke-width:0.249749;stroke-opacity:1"
         id="path40-4"
         cx="-131.67055"
         cy="-223.79829"
         r="2.3449321"
         transform="rotate(154.37371)" /><circle
         style="fill:#000000;stroke:none;stroke-width:0.190851;stroke-opacity:1"
         id="path40-4-3"
         cx="-124.07223"
         cy="-232.51326"
         r="1.7919298"
         transform="rotate(154.37371)" /><circle
         style="fill:#000000;stroke:none;stroke-width:0.190851;stroke-opacity:1"
         id="path40-4-3-0"
         cx="-89.260101"
         cy="-232.56271"
         r="1.7919298"
         transform="rotate(154.37371)" /><circle
         style="fill:#000000;stroke:none;stroke-width:0.249749;stroke-opacity:1"
         id="path40-4-8"
         cx="-80.05452"
         cy="-223.79829"
         r="2.3449321"
         transform="rotate(154.37371)" /></g></g></svg>
